# xmcd
#
# Track frame offsets:
#	150
#	21608
#	45202
#	64720
#	81402
#	95355
#	110145
#	119892
#	147825
#	160139
#	186256
#	197278
#	214766
#	224918
#
# Disc length: 3357 seconds
#
# Revision: 4
# Processed by: cddbd v1.5.2PL0 Copyright (c) Steve Scherf et al.
# Submitted via: EasyCDDAExtractor 2010.6.0.0
#
DISCID=d70d1b0e
DTITLE=Various Artist - Emozioni In Musica-I Poeti Della Canzone
DYEAR=1997
DGENRE=Italiani
TTITLE0=Ligabue - Ho Messo Via
TTITLE1=Vasco Rossi - Toffee
TTITLE2=Francesco De Gregori - Generale
TTITLE3=Lucio Dalla - 4-3-1943
TTITLE4=Luca Carboni - Li vedi
TTITLE5=Paolo Conte - La Donna D'Inverno
TTITLE6=Gino Paoli - Il Cielo In Una Stanza
TTITLE7=Antonello Venditti - Lilly
TTITLE8=Luigi Tenco - Cara Maestra
TTITLE9=Claudio Baglioni - Amore Bello
TTITLE10=Giorgio Gaber - Non Arrossire
TTITLE11=Lucio Battisti - Prendi Fra Le Mani La Testa
TTITLE12=Herbert Pagani - La Mia Porta
TTITLE13=Roberto Vecchioni - I Poeti
EXTD=
EXTT0=
EXTT1=
EXTT2=
EXTT3=
EXTT4=
EXTT5=
EXTT6=
EXTT7=
EXTT8=
EXTT9=
EXTT10=
EXTT11=
EXTT12=
EXTT13=
PLAYORDER=
